<svg width="203" height="46" viewBox="0 0 203 46" fill="none" xmlns="http://www.w3.org/2000/svg">
<path d="M195.5 6.85997C191.42 2.95997 185.88 0.659973 179.63 0.659973C173.38 0.659973 167.83 2.95997 163.76 6.85997C159.56 10.88 157.2 16.61 157.2 23.03C157.2 29.45 159.56 35.18 163.76 39.2C167.84 43.1 173.38 45.4 179.63 45.4C185.88 45.4 191.43 43.1 195.5 39.2C199.7 35.18 202.06 29.45 202.06 23.03C202.06 16.61 199.7 10.88 195.5 6.85997ZM188.39 31.52C186.25 33.83 183.32 35.19 179.63 35.19C175.94 35.19 173.01 33.83 170.87 31.52C168.9 29.32 167.76 26.49 167.76 23.03C167.76 19.57 168.84 16.74 170.81 14.54C172.95 12.23 175.94 10.87 179.63 10.87C183.32 10.87 186.25 12.23 188.39 14.54C190.36 16.74 191.5 19.57 191.5 23.03C191.5 26.49 190.37 29.32 188.39 31.52Z" fill="#FF2233"/>
<path fill-rule="evenodd" clip-rule="evenodd" d="M148.29 30.06L148.09 30.31C146.67 32.07 145.08 33.32 143.22 34.11C141.76 34.79 139.95 35.19 138.01 35.19C134.25 35.19 130.91 33.94 128.72 31.58C126.7 29.44 125.56 26.39 125.56 22.97C125.56 19 127.15 15.72 129.8 13.52C131.95 11.77 134.43 10.75 138.02 10.75C139.72 10.75 141.36 11.09 142.84 11.66C144.58 12.33 146.06 13.41 147.55 14.9L147.77 15.12L155.47 8.65998L155.26 8.39998C153.08 5.68998 150.48 3.72998 148.05 2.60998C145.21 1.30998 141.73 0.599976 137.8 0.599976C131.74 0.599976 126.37 2.59998 122.35 6.08998C117.74 10.17 115.03 16.08 115.03 22.97C115.03 28.74 116.98 33.88 120.34 37.78C124.47 42.45 130.61 45.34 137.8 45.34C142.38 45.34 146.04 44.46 149.07 42.74C151.8 41.2 153.98 39.01 155.92 36.19L156.1 35.92L148.32 30.07L148.29 30.06ZM103.05 1.71998L93.9996 19.56L85.0097 1.71998H72.8896L88.7197 30.58V44.22H99.2696V30.58L115.1 1.71998H103.04H103.05Z" fill="#FF2233"/>
<path d="M64.08 1.71997H50.08L34.26 44.22H45.03L48.05 36.03H66.29L69.37 44.22H80.08L64.08 1.71997ZM57.11 11.5L62.72 26.47H51.6L57.1 11.5H57.11ZM33.25 7.24997C31.7 5.33997 29.74 3.85997 27.31 2.84997C25.45 2.06997 22.61 1.71997 20.44 1.71997H0V44.22H10.55V32.72H20.44C23.04 32.72 26.16 32.13 28.42 31.06C31.46 29.63 33.72 27.12 35.09 24.16C36.04 22.02 36.57 19.65 36.57 17.16C36.57 13.43 35.39 9.98997 33.24 7.24997H33.25ZM23.51 22.6C22.73 22.96 21.44 23.38 19.63 23.38H9.98V11.16H19.11C20.67 11.16 22.18 11.39 23.04 11.76C24.26 12.28 25.12 13.01 25.67 13.99C26.15 14.85 26.38 15.88 26.38 17.15C26.38 19.9 25.44 21.68 23.51 22.6Z" fill="#FF2233"/>
</svg>
