<svg width="426" height="88" viewBox="0 0 426 88" fill="none" xmlns="http://www.w3.org/2000/svg">
<path d="M208.688 0.649983C207.481 0.663983 206.074 0.999983 204.199 1.99998C203.899 2.09998 203.101 2.69998 202.301 3.39998C201.901 3.69998 201.499 4.19998 201.199 5.39998C199.599 12.3 199.201 14.2 198.301 16C197.901 16.6 197.201 18.4 195.801 20.4C195.801 20.4 194.2 22.1 194.1 22.1C192.8 21.8 191.7 19.9 191.7 19.9C190.8 19 190 16.8 189.3 14.9C188.5 13.5 188.1 11.1 187.9 9.59998C187.8 9.19998 187.5 7.69998 187.4 6.59998C187.3 5.89998 186.6 5.49998 186.3 5.29998C185.9 5.09998 184.7 5.09998 183.7 5.39998C181.7 5.99998 180.9 5.79998 179.6 7.29998C179.4 7.49998 178.5 8.09998 178.7 9.19998C178.8 10.4 179.6 11.4 180.3 12.5C181.8 14.4 183 16.5 184.1 19C184.8 20.4 186.4 22.6 186.4 22.6C186.4 22.6 181.6 23.2 180.9 23.5C177.1 25.1 175.4 27.6 175.1 28.6C174.6 30.3 174.9 31.6 174.9 31.6L173.4 30.8C172 30 170.7 29.5 169.3 29.1C167.7 28.6 166.2 28.6 165.5 28.8C165.3 28.9 164.4 29.1 161.6 29.7L160.9 29.8L161 29.1C161.1 26.9 161.7 23.7 163.8 21.5C165 20.1 166.1 19.3 166.9 18.5C168.4 17.2 168.9 16.8 168.6 15C168.2 12.3 166.5 11.5 165.5 11.1H165.4C165.1 11 164.7 10.9 164.2 10.8C163.3 10.6 162 10.4 160.7 9.79998C157.5 8.49998 154.2 6.49998 151.6 3.99998C148.5 0.899983 147.2 1.89998 146.5 2.59998C145.6 3.49998 145.2 6.19998 146.7 8.19998C147.2 8.99998 147.4 9.49998 147.8 9.89998C148.5 10.6 149.3 11.2 148.7 12.5C148 14.1 141 26.6 130.9 33.2C129.8 33.9 128.2 34.8 126.4 35.7C124.1 37 119.4 37.9 120.3 39.5C120.4 39.7 124.1 42.1 124.2 42.2C128.2 44.4 132.8 44.4 136.9 42.1C137 42 137.5 41.8 137.5 41.8L138 41.4C138 41.4 139.7 57.1 139.7 56.9L139.4 57C137.9 57.4 137.7 57.4 136.8 58.2C136.6 58.5 136.4 59.6 136.7 60.3C137.1 60.9 138 61 138.3 61.1C138.4 61.2 140.6 61.8 142.9 60.8C143.2 60.7 146.7 59.5 146.7 59.5L146.1 60.6C144.8 63.1 142.4 67.5 142.7 69.7C143.1 72.6 145.4 77.5 146.7 77.7C147.4 77.9 147.7 78.1 148 78.3C148.4 78.4 148.7 78.3 149.1 78.2C150 78 152.8 76.3 152.2 72C151.9 69.6 151.2 68.2 150.6 67C150 65.9 149.8 64.8 149.4 63.3C149.1 62.1 148.6 60.8 147.9 59.9L147.5 59.2L155.5 57.5L155.3 58.3C154.5 61.3 153.8 63.6 153.9 65.2C154.1 69.6 155 73.8 155.6 74.3C156 74.7 156.7 74.8 157.2 75C157.9 75.3 158.4 75.6 159 75.7C159.9 75.8 160.5 75.1 160.6 74.6C161.1 72.7 163.1 70.5 159.8 61.5C159.3 60.1 158.3 58.9 157.8 58.1L157.3 57.4C157.3 57.4 164.8 56.4 166.7 56.2C167.6 56.1 168.3 56.1 168.4 56C169.3 55.9 169.6 55.3 170.1 54.9C170.1 54.9 173.7 50.1 174.5 47.7L175.1 46.4C175.1 46.4 180.2 46.4 181.5 46.3C184.9 46 187.2 45.7 189.3 45.6L189.8 45.5L189.9 46L190 50.6C190 50.6 181.2 51.4 178.6 51.7C178.6 51.7 177.8 51.8 176.8 52.4C175.9 52.9 175.3 53.9 174.8 54.6C174.7 54.8 174.3 55.2 174.1 55.3C173.5 55.9 172.1 57 172.6 59.7L172.7 60.1C172.7 60.1 173.4 61.3 173 61.9L171.1 61.5L170.2 61.2C168.2 60.7 164.7 59.6 163.3 60.3C162.9 61 162.7 62 163.9 64.2C164.2 64.9 166.8 72.1 167.9 72.5C168.1 72.6 168.4 72.6 168.7 72.4C170.3 71.6 174.3 69.1 175.2 64.4L175.6 61.7C175.6 61.7 177.3 62 177.6 62C178 61.9 178.4 62 178.7 62C179.5 62.1 180 62.1 182.7 61C184.1 60.3 190.1 59.7 190.1 59.7L190.2 60.2C190.2 61.1 190.8 72.4 190.8 75.9C190.9 79.6 190.9 82.7 191.1 84.2C191.4 86.2 192.3 87.5 193.2 87.7C194 87.8 195.7 87 196.7 85.3C198.1 82.8 198.9 71 199 60V59.5H199.5C201.2 59.5 202.6 59.4 204.2 59.4C206.6 59.3 209.4 59.2 211.4 59.4C212.1 59.5 212.7 59.7 213.4 59.9C214.9 60.3 216.5 60.9 218.3 60.2C220.7 59 223.2 53 222.6 50.7C222.5 50 221.1 48.9 219.9 49.2C218.3 49.6 213.5 50.2 211.3 50.1C209.3 50 199.4 50 199.4 50L199.6 45.1C199.7 44.3 199.8 44 200.4 43.8C200.5 43.7 201 43.5 201.1 43.5C202.4 43.4 204 43.3 205.6 43.4C206.8 43.5 208.2 43.7 208.8 43.5C210 43.1 211.9 41 212.2 38.2C212.2 37.8 212.3 37.2 212.3 37C212.4 35.9 210.6 35.7 206.6 35.8C205.9 35.9 202.3 36 201.3 35.9C200.7 35.9 199.6 35.8 199.6 35.8C199.6 35.8 200 31.3 200 30.7L200.1 30.3L200.5 30.2C203.6 29.8 206.1 29.8 206.4 29.8C207.1 29.8 210.4 29.7 210.6 29.4C210.8 29 213.5 27.6 214.1 26.4C214.5 25.5 214.9 24.8 215.1 24.3C216 22.7 215.4 22.1 215 21.7C214.6 21.3 211 21 205.9 21.4C205.5 21.5 203 21.6 203 21.6L211.3 7.89998C212.6 5.99998 213.6 4.29998 212.5 2.29998C212.1 1.59998 211.5 0.999983 210.7 0.899983C210.062 0.749983 209.411 0.642983 208.688 0.649983ZM35.9572 3.53898C34.3642 3.44398 32.1872 3.91398 30.6992 8.90198C30.3992 9.90198 28.4012 10.402 24.3012 10.902C22.8012 11.002 20.4002 11.402 20.0002 11.502C18.4002 11.902 16.8002 11.9 15.5002 12.8C14.3002 13.5 14.3002 14.9 15.3002 16.7C16.2002 18.4 16.1002 18.901 17.5002 20.001C17.8002 20.201 18.8002 20.701 19.1002 20.701C20.3002 21.101 21.1002 21.101 21.9002 20.501C23.1002 19.801 29.5002 19.201 29.5002 19.201C30.1002 20.801 30.0002 23.701 30.0002 23.701C30.0002 23.701 27.0002 24.601 24.3002 25.001C21.6002 25.501 18.9002 25.401 17.8002 25.401C16.6002 25.401 14.2002 25.601 14.2002 25.601C13.2002 25.601 12.4002 25.601 10.8002 26.001C9.6002 26.401 9.3002 27.201 8.8002 27.901C8.7002 28.101 7.3002 30.801 6.9002 32.101C6.5002 33.101 7.8002 38.301 9.1002 42.401C9.8002 44.901 13.5002 51.501 14.8002 52.401C16.0002 53.201 18.5002 53.401 19.9002 52.701C21.4002 52.001 28.3002 50.701 28.3002 50.701L28.8002 50.801C29.5002 51.401 29.2002 55.701 29.2002 55.701C29.2002 55.701 18.5002 57.901 15.1002 58.101C14.4002 58.201 14.0002 58.201 13.6002 58.201C13.2002 58.201 12.6002 58.301 12.1002 58.301C11.1002 58.401 9.9002 58.601 8.1002 58.501C6.0002 58.501 5.0002 59.001 4.5002 59.501C4.4002 59.601 4.0002 60.101 3.8002 60.401C3.0002 60.901 2.5002 61.501 1.0002 62.801C0.600204 63.201 0.300204 63.501 0.200204 64.101C0.000204146 65.401 -0.499796 67.501 1.7002 69.101C3.5002 70.401 10.3002 69.501 12.0002 68.501C13.0002 67.901 24.6002 64.701 26.0002 64.601C26.7002 64.401 29.7002 63.801 29.7002 63.801L29.8002 64.201C29.9002 65.501 30.7002 78.101 30.7002 80.501C30.7002 82.701 33.0002 84.101 34.1002 84.501C34.7002 84.601 37.4002 81.801 37.4002 81.801C39.4002 79.301 38.9002 78.701 39.3002 76.501C39.3002 76.101 39.4002 75.801 39.4002 75.401C39.8002 72.901 40.1002 63.001 40.1002 63.001L40.4002 62.901C42.2002 62.101 49.8002 62.001 50.5002 62.101C50.9002 62.201 54.8002 62.901 56.3002 61.301C57.3002 60.301 58.8002 57.201 59.2002 55.701C59.5002 54.701 59.2002 53.201 57.5002 53.201C54.3002 53.101 49.5002 54.301 46.8002 54.401C44.9002 54.401 40.7002 54.801 40.7002 54.801L41.0002 49.6L41.2002 49.5C41.8002 49.2 45.5002 49.2 50.0002 48.9C49.9002 48.8 51.5002 48.5 52.0002 47.9C52.9002 47.1 53.2002 45.8 53.8002 44.8C54.3002 43.5 54.8002 41.7 55.3002 40.1C55.8002 38.5 56.1002 36.8 56.7002 34.6C57.3002 32.1 57.4002 30.4 57.6002 28.7C57.8002 26.6 56.9002 24.4 56.8002 24.4C56.4002 23.2 55.6002 21.6 54.7002 21.4C53.9002 21.3 53.2002 21.3 51.9002 21.5C50.6002 21.8 48.9002 21.9 48.9002 21.9C47.1002 22 42.5002 22 42.5002 22L42.8002 17.5C42.8002 17.5 47.1002 16.5 50.8002 15.9C52.6002 15.6 53.1002 13.9 54.0002 12.6C54.5002 11.8 55.0002 10.8 55.0002 10.5C55.1002 10.3 55.4002 9.19998 55.0002 8.49998C54.5002 7.79998 53.4002 7.79998 52.5002 7.79998C51.0002 7.89998 48.0002 8.19998 46.6002 8.49998C45.0002 8.89998 43.3002 8.59998 42.5002 8.19998C42.3002 8.09998 42.1002 7.49998 41.5002 6.89998C40.5002 5.69998 38.3002 3.69998 36.7002 3.59998H36.6002C36.3866 3.57194 36.1722 3.55093 35.9572 3.53698V3.53898ZM353.113 4.70598C352.722 4.72098 352.288 4.81398 351.801 5.00098C349.201 5.90098 348.601 7.10098 348.301 9.10098C348.201 9.90098 347.6 12.001 347.6 12.001C347.6 12.001 344.5 13.001 342.8 13.501C341.8 13.701 340.1 14.201 339.7 14.301C338.6 14.501 336.3 15.001 336 16.401C335.6 18.401 335.9 18.901 336.5 19.501C336.5 19.501 339.6 22.401 340.1 22.601C340.5 22.801 341.6 22.501 342.8 22.001C344 21.501 348.2 20.601 348.2 20.601L348 25.001C348 25.001 340.1 27.501 337.7 28.101C337.1 28.201 336.7 28.301 336.5 28.401C336.1 28.501 335.3 28.601 334.5 28.801C332.7 29.101 331.9 29.301 330.7 29.701L329.2 30.501C328.2 31.101 326.3 32.301 325.9 33.701C325.8 34.201 325.9 34.501 326.2 34.901C327.4 36.801 329.4 39.001 332.6 38.001C335.8 36.901 338 36.201 338 36.201L338.3 36.101C338.3 36.101 343.7 42.001 344 42.901L344.1 43.401C344.1 43.401 343 43.901 342.7 44.001C341.5 44.501 340.1 45.101 338.7 45.101C338.1 45.101 337.5 45.101 337 45.001C335.9 44.901 334.7 45.001 334.1 45.301C333.5 45.601 332.9 46.101 332.9 46.101C332 46.701 331.6 47.501 331 48.201C330.3 49.001 329.9 50.501 330.3 52.301C330.6 53.201 333.8 55.101 335.7 54.401C336.5 54.101 343.8 51.701 345.5 52.801L345.7 53.001C345.7 53.001 346.4 56.101 346.3 57.001L346.2 57.301L345.9 57.401C341.7 58.501 334.3 60.001 331.2 60.001C330.3 60.001 329.6 59.901 328.9 59.901C327.2 59.801 326 59.501 325.2 60.601C324.2 61.901 324.7 61.401 322.7 63.701C321.7 64.801 321.2 65.801 321.3 67.101C321.3 67.601 321.7 68.101 322.5 68.901C324.4 71.001 325.5 73.301 327 72.501C328.9 71.201 335.9 67.801 338.6 67.101C341.2 66.401 346.6 65.701 346.6 65.701C346.6 65.701 346.7 68.501 346.7 69.801C346.8 72.801 346.8 75.901 347.2 79.801C347.3 81.301 348 82.401 349 82.901C349.8 83.301 351 83.101 352 82.201C353.6 80.901 355.3 79.401 355.7 77.801C356.3 75.401 356.1 64.401 356.1 64.401C356.1 64.401 367.4 61.001 368 60.901C369 60.601 371.9 60.201 371.9 60.201V60.601C371.9 61.901 371.4 74.501 371.5 77.501C371.6 78.601 372.2 79.501 373 79.901C374 80.301 375.6 80.101 376.4 79.101C378.9 76.701 382.1 72.401 381.7 66.101C381.2 58.201 381.3 49.201 381.3 49.201C381.3 49.201 386.4 53.001 391.5 57.901L396.9 62.501L401.4 66.201C404.1 68.401 405.9 69.901 406.7 70.901C407.8 72.201 411.7 75.101 414.6 74.001C421.6 71.301 425.7 67.901 425.5 65.201C425 62.101 424.2 61.501 416.2 60.301C413.2 59.801 409.8 58.701 403.8 56.001C397.7 53.301 387.5 46.501 387.5 46.501L390.6 45.101C394 43.901 397.5 42.101 398.8 41.501L399.2 41.301C401.8 40.201 402.6 39.601 401.8 37.401C401.4 35.901 400.2 34.301 398.7 33.101C398.5 33.001 397.9 32.601 397.3 32.801C396.7 33.001 396.5 33.401 396.3 33.601C392.9 38.401 388.7 41.501 383.9 42.501C383.9 42.501 381.6 40.601 381.3 37.601L381.2 37.501L381.6 29.601L381.7 28.401C381.7 28.401 383 30.201 383.4 30.501C384.7 32.101 385.6 33.501 387.7 33.301C390 32.901 391.6 31.801 395.2 28.301C397 26.701 398.3 25.201 399.5 24.101C400.8 22.901 402.1 22.001 402.7 21.301C403.7 20.401 405.7 19.201 407.1 18.501C407.6 18.201 408.1 17.901 408.3 17.701C408.7 17.401 409.3 16.301 408.8 15.601C408 13.901 405.9 12.601 404.8 10.901C404.3 10.101 404.2 9.50098 403.6 8.50098C403.3 8.00098 403.1 7.00098 401.8 6.40098C400.1 5.90098 395.3 7.90098 391 9.30098C387.1 10.601 380.9 12.101 380.9 12.101C379.7 11.501 378.9 10.801 378.2 10.301C377.7 9.80098 377.2 9.50098 377 9.50098C375.8 9.30098 374.7 11.601 373.9 12.901C373.5 13.601 372.7 15.201 372.4 15.401C372.3 15.601 371.7 16.501 372.5 17.201C373.3 18.001 373.5 20.301 373.1 23.901C373 24.501 372.6 24.201 372.6 24.201C369.9 24.201 368 24.001 365.8 24.001C363.5 23.901 357.4 23.801 357.4 23.801L357.6 19.501V19.001L358 18.901C360.3 18.301 362.1 18.001 363.8 17.801C365.9 17.501 367.5 17.301 368 16.701C369 15.501 370.5 12.301 371 11.101C371.1 10.801 371 10.601 371 10.601C370.9 10.301 370.3 10.101 369.5 9.90098C368.3 9.70098 361.8 10.201 359.3 10.401H359.2C359.2 10.401 357.1 9.00098 356.5 7.60098C355.687 6.05698 354.809 4.64498 353.113 4.70598ZM293 10.8C292.9 10.8 292.4 10.901 291.8 11.001C277.9 13.001 257.6 17.301 257.6 17.301C257.6 17.301 256.4 15.801 254.2 15.301C252.7 14.901 250.2 15.101 249.1 16.201C247.2 18.201 248.1 23.901 248.2 26.701C248.3 31.801 247.7 45.201 247.3 51.701C247 57.801 245.4 58.501 245.9 60.601C246.5 62.101 248 62.701 249.6 63.301C250.6 63.701 251.1 63.901 251.8 64.301L253.4 65.501C254.7 66.501 256.2 67.501 257.7 67.001C259.7 66.401 278.3 61.101 290.1 62.901C290.2 63.001 291.6 63.001 292.3 62.701C293.5 62.201 294.4 61.101 294.7 60.601C295.4 59.601 297.6 57.901 297.8 57.601C298.6 57.001 299.1 55.401 299.1 53.101C299.1 52.901 299.2 29.201 300.3 26.801C301.2 24.901 302.2 23.301 303.1 22.201C304.1 20.901 303.7 19.001 302.4 17.701C298.6 14.401 296.7 12.301 296.7 12.301C296.2 11.701 295 10.801 293 10.801V10.8ZM97.8002 12.2C96.5002 12.2 95.6002 13.002 94.8002 13.402C89.8002 15.702 75.7002 17.201 70.4002 16.201H70.3002C68.3002 15.401 66.9002 14.901 65.9002 15.001C64.8562 15.088 63.8432 15.692 63.3262 16.115C63.3902 16.03 63.3842 16.015 63.1002 16.3C63.1002 16.3 61.3002 17.901 61.0002 18.601C60.6002 20.201 61.2002 21.601 61.2002 21.801C62.8002 29.201 66.4002 50.401 57.7002 61.801C57.7002 61.801 56.5002 63.401 55.8002 64.001C54.0002 65.501 53.2002 66.701 53.6002 68.001C53.9002 68.901 55.4002 69.501 56.2002 69.801C57.2002 70.201 58.4002 70.101 59.5002 69.601C61.9002 68.401 65.2002 66.301 66.6002 64.001C68.4002 61.201 70.7002 55.601 71.3002 53.401L71.5002 52.801C71.8002 51.601 71.6002 50.201 74.2002 49.401C76.3002 48.801 84.2002 48.801 85.6002 49.101C86.9002 49.501 87.8002 50.301 88.0002 51.101C88.0002 51.301 88.1002 51.901 88.1002 53.601C88.2002 57.101 88.4002 63.701 89.0002 65.901C89.4002 67.601 90.3002 68.901 91.3002 69.501C92.2002 70.001 94.4002 70.001 95.8002 69.601C97.4002 69.201 100 67.801 100.1 65.801C100.2 64.901 100.2 63.301 99.7002 59.001C99.1002 55.101 98.9002 50.201 98.7002 45.401C98.4002 38.901 98.1002 28.801 99.1002 24.101C99.1002 22.501 99.2002 20.701 100.3 19.101C101 18.101 101.4 16.201 101.1 15.401C100.4 13.001 98.8002 12.2 97.8002 12.2ZM395.9 16.7L395.1 18.001C387.8 29.201 384.3 28.401 382.2 27.301C382.1 27.201 382.2 27.201 382.1 27.201L381.8 27.001V25.6C381.7 21.9 381.7 21.2 382.1 20.8C383.3 20.1 386.4 19.2 389.9 18.4C391.8 17.9 393.6 17.5 394.5 17.2L395.9 16.7ZM152.9 20.001H153C153.3 20.001 153.7 20.101 153.9 20.401C154.3 20.901 154.4 21.501 154.2 22.401C154.1 22.601 154.1 23.001 154 23.401C153.5 25.201 152.8 28.201 152.5 31.201L152.4 31.601L152.1 31.701L145.7 33.101L144.6 33.301L145.2 32.301L146 30.701C147.8 27.401 150 23.701 152.8 20.201L152.9 20.001ZM285.8 22.801C287.7 22.701 288.4 24.201 288.6 25.001C288.5 25.101 288.7 26.401 288.3 29.601C287.9 32.501 287.3 32.601 285.4 33.401C285 33.501 284.7 33.701 284.2 33.801C281.2 35.201 258.7 36.301 258.7 36.301L259.1 26.401C259.1 26.401 284.1 22.901 285.8 22.801ZM84.7132 23.619C86.2362 23.647 87.3002 23.826 87.9002 24.201L88.1002 24.601C88.3002 26.501 87.8002 28.801 87.8002 29.001L87.4002 29.401C85.4002 30.201 76.2002 30.601 73.1002 29.701C73.1002 29.701 72.8002 29.601 72.7002 29.201C72.4002 27.601 72.5002 25.401 72.7002 25.101C72.9002 24.701 73.3002 24.501 73.3002 24.501C78.3632 23.939 82.1752 23.571 84.7132 23.619ZM42.0032 28.129C43.3802 28.127 44.4132 28.239 44.9002 28.501C46.1002 29.101 45.9002 30.301 45.3002 31.601C45.2002 31.801 45.2002 32.001 45.1002 32.301C45.0002 32.501 44.7002 32.701 44.5002 32.701C43.2002 33.101 37.7002 34.001 32.6002 34.601C22.2002 35.701 21.9002 35.501 21.6002 35.301C20.9002 34.901 20.1002 34.201 20.5002 32.101C20.7002 31.301 20.8002 31.701 21.2002 31.401C23.6372 30.264 36.0432 28.135 42.0042 28.128L42.0032 28.129ZM371.326 30.8C371.818 30.794 372.2 30.827 372.4 30.902L372.8 31.101L372.7 31.401L372.6 34.001C372.4 39.001 372.2 43.001 372.2 44.801C372.2 47.001 372.2 52.201 372 53.201L371.9 53.701L371.5 53.601C370.5 53.501 366.3 54.301 362.3 54.901C360.1 55.201 358 55.401 356.9 55.601L356.3 55.701L356.4 55.001L356.7 50.701L356.8 50.301L356.9 50.101C358.9 48.701 361.7 48.201 363.7 47.701C364.4 47.501 365.8 47.301 366 47.201C366.3 47.001 367.2 47.101 367.6 46.901C368.2 46.701 368.7 46.601 368.8 45.201C368.9 44.601 368.9 43.101 367.8 41.901C366.6 40.701 363.8 40.301 360.8 40.801L359.7 41.001L360.4 40.001C361.3 38.501 362.2 37.201 363.1 36.001C364.3 34.401 365.3 33.001 365.5 32.101V31.801L365.8 31.701C367.376 31.176 369.85 30.818 371.326 30.8ZM188.699 31.402H189L189.1 31.902C189.2 32.602 189.2 33.001 189.2 34.101L189.1 35.701V36.101L189 36.401C186.1 37.201 183 37.701 179.6 37.701C179.2 37.701 177.3 37.601 176.5 37.801C175.6 38.001 175.4 38.801 175.4 38.801L175.8 36.901C175.9 35.801 176 35.601 176.1 35.001V34.701L176.2 32.901C179.9 32.801 183.1 31.601 186.7 31.501H188.4L188.7 31.401L188.699 31.402ZM355.099 32.402L354.699 33.201L351.801 38.801L351.401 39.601L350.901 38.901L348 34.8L347.6 34.3L348.1 34C350.2 32.9 352.3 32.7 353.6 32.6L354.1 32.5L355.1 32.4L355.099 32.402ZM165.5 35.299L165.2 36.1C165.1 36.5 165.1 37.2 165.1 38.3V38.7L164.7 38.8C163.6 38.9 163.2 39.1 162 39.3L161.4 39.4V36.4L161.8 36.3L164.7 35.5C164.7 35.5 165.4 35.299 165.5 35.299ZM85.8262 36.385C86.5252 36.432 87.3502 36.675 87.5002 37.2C88.0002 38.6 87.8002 41 87.1002 41.8C85.6002 43.7 74.2002 43 74.2002 43C73.4002 43 72.8002 42.7 72.5002 42.4C72.3002 42 72.1002 38.5 72.6002 37.5C73.0002 36.6 78.0002 36.3 84.1002 36.4H85.2002C85.3742 36.376 85.5932 36.37 85.8262 36.385ZM41.9182 38.595C43.1542 38.572 43.9932 38.63 44.1992 38.799C45.4992 39.799 44.9002 41.801 44.0002 42.901L43.5002 43.1C41.8002 43 36.4002 43.9 32.1002 44.5C24.9002 45.4 23.9002 45.5 23.4002 44.9C22.5002 44 21.3002 42.6 22.7002 41.3C23.7552 40.324 36.5622 38.691 41.9182 38.595ZM152.1 38.6V39.2L152.2 41.6L152.3 42L151.9 42.1C149.8 42.5 148.9 42.8 147.6 42.8H147.2V42.3L147.1 40.2V39.8L147.5 39.7L151.5 38.7L152.1 38.6ZM283.4 42.4C285.6 42.4 287.9 42.7 288.1 45.9C288.1 46.7 288.3 50.8 286.6 52.5C286.2 52.9 285.6 53 285 53C282.6 52.9 269.3 53.9 261.9 55.7C261.8 55.7 261.8 55.8 261.5 55.8C260.7 56 259.8 56.3 259.1 55.7C258.5 55.2 258.4 54.4 258.5 53C258.5 51 258.7 48.4 261.4 47.4C264.1 46.5 276.7 42.4 283.4 42.4ZM164.637 45.057C164.674 45.062 164.699 45.075 164.699 45.1V46.4C164.599 47.1 164.6 47.8 164.5 48.4V48.8L164.3 48.9L163.6 49.1C162.9 49.3 162.6 49.4 161.9 49.5L161.3 49.6V49C161.3 48.6 161.3 48 161.4 47.5V45.7L161.8 45.6C162.9 45.4 163.5 45.2 164.3 45.1C164.3 45.1 164.524 45.043 164.637 45.057ZM152.4 48.299L152.5 49L152.6 51.5L152.7 51.9L152.4 52C151.7 52.2 151.5 52.4 150.9 52.5C150.2 52.7 149.9 52.9 149 53.2L148.3 53.5V52.8L147.9 50V49.6L148.3 49.5C149.1 49.3 149.5 49.1 150 49C150.7 48.9 151 48.7 151.8 48.5L152.4 48.299ZM133 65.6C132.9 65.6 132.9 65.7 132.9 65.7L132.8 65.8C130.8 66.8 127.3 71 127.3 74.1C127.3 76.2 128.1 77.9 129.1 78.5C129.4 78.6 130.1 78.8 130.6 78.7C131.2 78.4 131.9 78.1 132.2 77.8C132.5 77.4 133 77 133.9 76.8C134.4 76.7 134.9 76.3 135.3 75.7C135.9 74.6 136.3 72.8 135.9 71.3C135.1 69.2 134 67.4 133.5 66.7C133.3 66.4 133.3 66.4 133.2 66.2L133.1 65.9C133.1 65.8 133 65.7 133 65.6Z" fill="black"/>
</svg>
