<svg xmlns="http://www.w3.org/2000/svg" width="30" height="30" viewBox="0 0 30 30">
    <defs>
        <clipPath id="h4bijghuga">
            <path data-name="사각형 630" style="fill:transparent" d="M0 0h30v16H0z"/>
        </clipPath>
        <filter id="o5fcxmcd6b" x="4.04" y="3.04" width="21.92" height="22.92" filterUnits="userSpaceOnUse">
            <feOffset dy="-1"/>
            <feGaussianBlur result="blur"/>
            <feFlood flood-color="#fff"/>
            <feComposite operator="in" in2="blur"/>
            <feComposite in="SourceGraphic"/>
        </filter>
    </defs>
    <path data-name="사각형 631" style="fill:none" d="M0 0h30v30H0z"/>
    <g data-name="그룹 38">
        <g data-name="그룹 37" style="clip-path:url(#h4bijghuga)" transform="translate(0 7)">
            <path data-name="패스 241" d="M27.178 4.947a18.149 18.149 0 0 0-3.15-2.39 18.021 18.021 0 0 0-16.785-.914A18.246 18.246 0 0 0 .289 7.267L0 7.654l.271.4a18.311 18.311 0 0 0 2.551 3 18.156 18.156 0 0 0 3.15 2.39 17.963 17.963 0 0 0 3.653 1.665 18.123 18.123 0 0 0 4.058.824q.783.067 1.567.067a17.992 17.992 0 0 0 3.148-.277 17.954 17.954 0 0 0 4.359-1.366 18.246 18.246 0 0 0 6.954-5.624L30 8.347l-.271-.4a18.316 18.316 0 0 0-2.551-3M15.26 14.652c-.485 0-.973-.021-1.463-.063a16.687 16.687 0 0 1-12.138-6.9A16.636 16.636 0 0 1 14.74 1.348c.485 0 .973.021 1.463.063a16.687 16.687 0 0 1 12.138 6.9 16.637 16.637 0 0 1-13.081 6.341" style="fill:#888"/>
            <path data-name="패스 242" d="M85.8 20.16a5.728 5.728 0 1 0 1.222 1.821A5.676 5.676 0 0 0 85.8 20.16" transform="translate(-66.767 -16.211)" style="fill:#888"/>
        </g>
    </g>
    <g style="filter:url(#o5fcxmcd6b)">
        <path data-name="선 10" transform="rotate(45 -3.104 7.494)" style="stroke:#888;fill:none" d="M0 0h30"/>
    </g>
</svg>
